HIERARCHY
ROOT Hips
{
	OFFSET 0.00000 0.00000 0.00000
	CHANNELS 6 Xposition Yposition Zposition Zrotation Yrotation Xrotation 
	JOINT LHipJoint
	{
		OFFSET 0 0 0
		CHANNELS 3 Zrotation Yrotation Xrotation
		JOINT LeftUpLeg
		{
			OFFSET 1.34019 -1.87553 0.90315
			CHANNELS 3 Zrotation Yrotation Xrotation
			JOINT LeftLeg
			{
				OFFSET 2.55316 -7.01474 0.00000
				CHANNELS 3 Zrotation Yrotation Xrotation
				JOINT LeftFoot
				{
					OFFSET 2.64657 -7.27139 0.00000
					CHANNELS 3 Zrotation Yrotation Xrotation
					JOINT LeftToeBase
					{
						OFFSET 0.24207 -0.66507 2.14489
						CHANNELS 3 Zrotation Yrotation Xrotation
						End Site
						{
							OFFSET 0.00000 -0.00000 1.12451
						}
					}
				}
			}
		}
	}
	JOINT RHipJoint
	{
		OFFSET 0 0 0
		CHANNELS 3 Zrotation Yrotation Xrotation
		JOINT RightUpLeg
		{
			OFFSET -1.28320 -1.87553 0.90315
			CHANNELS 3 Zrotation Yrotation Xrotation
			JOINT RightLeg
			{
				OFFSET -2.60484 -7.15674 0.00000
				CHANNELS 3 Zrotation Yrotation Xrotation
				JOINT RightFoot
				{
					OFFSET -2.60296 -7.15159 0.00000
					CHANNELS 3 Zrotation Yrotation Xrotation
					JOINT RightToeBase
					{
						OFFSET -0.31082 -0.85398 2.28998
						CHANNELS 3 Zrotation Yrotation Xrotation
						End Site
						{
							OFFSET -0.00000 -0.00000 1.21611
						}
					}
				}
			}
		}
	}
	JOINT LowerBack
	{
		OFFSET 0 0 0
		CHANNELS 3 Zrotation Yrotation Xrotation
		JOINT Spine
		{
			OFFSET -0.00160 2.05581 -0.15156
			CHANNELS 3 Zrotation Yrotation Xrotation
			JOINT Spine1
			{
				OFFSET 0.04594 2.06326 -0.01617
				CHANNELS 3 Zrotation Yrotation Xrotation
				JOINT Neck
				{
					OFFSET 0 0 0
					CHANNELS 3 Zrotation Yrotation Xrotation
					JOINT Neck1
					{
						OFFSET 0.03753 1.73883 0.26751
						CHANNELS 3 Zrotation Yrotation Xrotation
						JOINT Head
						{
							OFFSET -0.09795 1.76129 -0.31794
							CHANNELS 3 Zrotation Yrotation Xrotation
							End Site
							{
								OFFSET -0.03611 1.79987 -0.13846
							}
						}
					}
				}
				JOINT LeftShoulder
				{
					OFFSET 0 0 0
					CHANNELS 3 Zrotation Yrotation Xrotation
					JOINT LeftArm
					{
						OFFSET 3.30667 1.29205 -0.22445
						CHANNELS 3 Zrotation Yrotation Xrotation
						JOINT LeftForeArm
						{
							OFFSET 4.92785 -0.00000 -0.00000
							CHANNELS 3 Zrotation Yrotation Xrotation
							JOINT LeftHand
							{
								OFFSET 3.44052 -0.00000 0.00000
								CHANNELS 3 Zrotation Yrotation Xrotation
								JOINT LeftFingerBase
								{
									OFFSET 0 0 0
									CHANNELS 3 Zrotation Yrotation Xrotation
									JOINT LeftHandIndex1
									{
										OFFSET 0.65433 -0.00000 0.00000
										CHANNELS 3 Zrotation Yrotation Xrotation
										End Site
										{
											OFFSET 0.52753 -0.00000 0.00000
										}
									}
								}
								JOINT LThumb
								{
									OFFSET 0 0 0
									CHANNELS 3 Zrotation Yrotation Xrotation
									End Site
									{
										OFFSET 0.53559 -0.00000 0.53559
									}
								}
							}
						}
					}
				}
				JOINT RightShoulder
				{
					OFFSET 0 0 0
					CHANNELS 3 Zrotation Yrotation Xrotation
					JOINT RightArm
					{
						OFFSET -3.20032 1.49783 -0.27688
						CHANNELS 3 Zrotation Yrotation Xrotation
						JOINT RightForeArm
						{
							OFFSET -5.09181 -0.00000 -0.00000
							CHANNELS 3 Zrotation Yrotation Xrotation
							JOINT RightHand
							{
								OFFSET -3.49865 -0.00000 -0.00000
								CHANNELS 3 Zrotation Yrotation Xrotation
								JOINT RightFingerBase
								{
									OFFSET 0 0 0
									CHANNELS 3 Zrotation Yrotation Xrotation
									JOINT RightHandIndex1
									{
										OFFSET -0.66641 -0.00000 0.00000
										CHANNELS 3 Zrotation Yrotation Xrotation
										End Site
										{
											OFFSET -0.53728 -0.00000 0.00000
										}
									}
								}
								JOINT RThumb
								{
									OFFSET 0 0 0
									CHANNELS 3 Zrotation Yrotation Xrotation
									End Site
									{
										OFFSET -0.54548 -0.00000 0.54548
									}
								}
							}
						}
					}
				}
			}
		}
	}
}
MOTION
Frames: 14
Frame Time: .0083333
-0.2516 17.944 -30.3464 0 0 0 0 0 0 -21 0 0 0 0 0 0 0 0 0 0 0 0 0 0 21 0 0 0 0 0 0 0 0 0 0 0 0 0 0 0 0 0 0 0 0 0 0 -16 0 0 21 0 0 11 0 0 0 -8 0 0 0 0 0 0 0 0 0 0 0 0 0 0 0 0 0 0 0 0 8 0 0 0 0 0 0 0 0 0 0 0 0 0 0 0 0 0
-0.2516 17.9440 -30.3464 -0.9878 33.9757 1.2141 0.0000 0.0000 0.0000 -13.2138 -14.5170 -7.0620 1.8291 8.5007 24.2454 0.3654 -4.7512 -10.7772 0.5938 -4.9334 -13.7188 0.0000 0.0000 0.0000 23.0866 -13.6899 -7.1214 -1.8686 -8.5868 24.5111 2.9809 -33.8999 -33.0659 -0.0413 -1.3124 3.6088 2.5308 6.5418 2.2945 2.8845 8.8540 -0.2344 1.2352 4.4194 -1.5937 12.2174 21.0439 4.1610 -11.2205 29.4953 6.2793 -3.4397 14.7687 4.6588 0.0000 -0.0000 0.0000 -90.7543 -2.5202 1.1750 10.8975 -18.1310 -1.7439 -0.0000 -0.0000 1.3815 15.3734 -10.4851 -2.8644 -7.1250 0.0000 -0.0000 -8.2558 19.1746 5.1395 0.0000 -0.0000 0.0000 78.0463 -8.5017 11.7597 -24.3666 35.5495 -7.9187 0.0000 -0.0000 -15.0897 -23.1877 2.5453 -1.0898 7.1250 -0.0000 -0.0000 2.6115 -27.2087 1.1295
-0.2509 17.9439 -30.3481 -0.9782 33.9203 1.2534 0.0000 0.0000 0.0000 -13.2256 -14.5629 -7.0873 1.8328 8.5088 24.2705 0.3692 -4.6510 -10.8255 0.3793 -3.9553 -10.9510 0.0000 0.0000 0.0000 23.0630 -13.7363 -7.1424 -1.8562 -8.5599 24.4281 3.0261 -33.9225 -32.8153 -0.0382 -1.2619 3.4697 2.4913 6.5208 2.2442 2.8781 8.8226 -0.2360 1.2569 4.4043 -1.5719 12.0626 21.0911 4.0412 -11.1805 29.5432 6.3053 -3.3964 14.7855 4.6628 0.0000 -0.0000 0.0000 -90.9778 -2.4618 3.4283 11.3264 -18.7869 -1.8797 -0.0000 0.0000 -9.5616 20.6911 -10.5988 -3.9739 -7.1250 0.0000 -0.0000 -4.4965 18.6882 2.8273 0.0000 -0.0000 0.0000 78.2281 -8.3400 11.4716 -23.8175 34.9707 -7.6017 0.0000 -0.0000 -15.0734 -23.0898 2.3024 -0.9812 7.1250 -0.0000 -0.0000 2.6896 -27.4743 1.1466
-0.2523 17.9452 -30.3508 -1.1329 33.8185 1.2151 0.0000 0.0000 0.0000 -13.0564 -14.4867 -7.1490 1.8295 8.5016 24.2484 0.3695 -4.6745 -10.8315 0.3723 -3.9192 -10.8496 0.0000 0.0000 0.0000 23.2124 -13.6570 -7.1426 -1.8444 -8.5343 24.3490 2.9966 -33.8580 -32.8585 -0.0405 -1.2990 3.5719 2.6094 6.5269 2.2484 2.8881 8.8356 -0.2642 1.2013 4.4095 -1.5875 11.8629 21.1064 3.8212 -10.9629 29.5246 6.4194 -3.2983 14.7668 4.6682 -0.0000 0.0000 0.0000 -91.0820 -2.4863 3.0648 11.5082 -19.0629 -1.9386 -0.0000 0.0000 -11.6429 21.5439 -10.1262 -3.9706 -7.1250 0.0000 -0.0000 -3.8811 19.1240 2.4009 -0.0000 0.0000 0.0000 78.4475 -8.1826 11.1184 -23.1994 34.3061 -7.2504 0.0000 -0.0000 -14.7941 -23.4248 2.3551 -1.0200 7.1250 -0.0000 -0.0000 2.4315 -27.4111 1.0400
-0.2515 17.9470 -30.3515 -1.0752 33.7827 1.2733 0.0000 0.0000 0.0000 -13.1139 -14.4968 -7.1520 1.8262 8.4942 24.2254 0.3702 -4.6244 -10.8380 0.3879 -3.9993 -11.0747 0.0000 0.0000 0.0000 23.1490 -13.6712 -7.1369 -1.8336 -8.5106 24.2760 3.0010 -33.8396 -32.7828 -0.0404 -1.2973 3.5671 2.7270 6.7555 2.3513 2.5819 9.1475 -0.4499 0.7946 4.5580 -1.7692 12.6544 20.8414 4.4365 -11.2925 29.2186 5.8977 -3.5816 14.6515 4.5383 0.0000 0.0000 0.0000 -90.5841 -2.4368 2.6542 11.3836 -18.8738 -1.8982 -0.0000 0.0000 -10.5608 21.2494 -10.3093 -3.9809 -7.1250 0.0000 -0.0000 -4.0946 18.9518 2.5493 0.0000 0.0000 0.0000 79.1225 -8.1599 10.1163 -22.4270 33.4563 -6.8198 0.0000 -0.0000 -14.7676 -23.4526 2.3756 -1.0302 7.1250 -0.0000 -0.0000 2.4099 -27.3883 1.0320
-0.2512 17.9482 -30.3531 -1.0857 33.7227 1.3056 0.0000 0.0000 0.0000 -13.1006 -14.5017 -7.1684 1.8224 8.4858 24.1997 0.3710 -4.5689 -10.8474 0.3711 -3.9127 -10.8311 0.0000 0.0000 0.0000 23.1546 -13.6557 -7.1413 -1.8228 -8.4869 24.2029 3.0016 -33.8155 -32.7198 -0.0405 -1.2997 3.5738 2.7290 6.7788 2.3455 2.5422 9.1788 -0.4857 0.7507 4.5727 -1.7959 12.6855 20.8244 4.4940 -11.3310 29.1937 5.7880 -3.6098 14.6424 4.5028 -0.0000 0.0000 0.0000 -90.5945 -2.4677 2.2317 11.4405 -18.9602 -1.9166 -0.0000 0.0000 -11.7135 21.9980 -10.4422 -4.1877 -7.1250 0.0000 -0.0000 -3.5678 18.7501 2.2360 -0.0000 0.0000 0.0000 79.3745 -8.0278 9.6489 -21.7999 32.7502 -6.4773 0.0000 -0.0000 -14.6048 -23.5414 2.3924 -1.0419 7.1250 -0.0000 -0.0000 2.3416 -27.3684 1.0038
-0.2508 17.9495 -30.3547 -1.0898 33.6630 1.3439 0.0000 0.0000 0.0000 -13.0961 -14.5197 -7.1720 1.8160 8.4719 24.1567 0.3714 -4.4938 -10.8490 0.3688 -3.9010 -10.7984 0.0000 0.0000 0.0000 23.1546 -13.6343 -7.1531 -1.8143 -8.4681 24.1452 2.9962 -33.7822 -32.6752 -0.0408 -1.3045 3.5870 2.6774 6.7474 2.3145 2.5691 9.1348 -0.4838 0.8105 4.5518 -1.7892 12.5255 20.8750 4.4467 -11.3191 29.2486 5.7555 -3.5839 14.6662 4.4823 -0.0000 0.0000 0.0000 -90.7026 -2.5306 1.4805 11.4645 -18.9967 -1.9244 -0.0000 0.0000 -11.9352 22.3117 -10.5150 -4.2829 -7.1250 0.0000 -0.0000 -3.3481 18.6460 2.1055 -0.0000 0.0000 0.0000 79.5146 -7.8782 9.3100 -21.2054 32.0673 -6.1586 0.0000 -0.0000 -14.4092 -23.6189 2.4082 -1.0526 7.1250 -0.0000 -0.0000 2.2819 -27.3497 0.9792
-0.2503 17.9507 -30.3564 -1.0946 33.6020 1.3851 0.0000 0.0000 0.0000 -13.0921 -14.5556 -7.1833 1.8127 8.4644 24.1339 0.3725 -4.4014 -10.8615 0.3672 -3.8925 -10.7745 0.0000 0.0000 0.0000 23.1556 -13.6131 -7.1670 -1.8057 -8.4490 24.0863 2.9869 -33.7401 -32.6351 -0.0411 -1.3087 3.5987 2.5944 6.6799 2.2678 2.6406 9.0415 -0.4588 0.9368 4.5075 -1.7618 12.2087 20.9778 4.2931 -11.2428 29.3633 5.8085 -3.5052 14.7133 4.4797 -0.0000 -0.0000 0.0000 -90.8714 -2.5996 0.6753 11.4806 -19.0212 -1.9297 -0.0000 0.0000 -11.8984 22.5222 -10.6433 -4.3795 -7.1250 0.0000 -0.0000 -3.2037 18.4906 2.0254 -0.0000 -0.0000 0.0000 79.5467 -7.7055 9.0913 -20.6251 31.3881 -5.8534 0.0000 -0.0000 -14.2514 -23.6682 2.3726 -1.0395 7.1250 -0.0000 -0.0000 2.2443 -27.3876 0.9610
-0.2495 17.9517 -30.3584 -1.1097 33.5382 1.4229 0.0000 0.0000 0.0000 -13.0784 -14.5957 -7.2021 1.8109 8.4605 24.1218 0.3739 -4.3033 -10.8783 0.3659 -3.8854 -10.7543 0.0000 0.0000 0.0000 23.1662 -13.5948 -7.1857 -1.7973 -8.4305 24.0295 2.9752 -33.6902 -32.5934 -0.0413 -1.3115 3.6063 2.5056 6.6077 2.2157 2.7286 8.9418 -0.4281 1.0843 4.4602 -1.7287 11.8030 21.0972 4.0061 -11.0773 29.4917 5.9909 -3.3733 14.7605 4.5125 -0.0000 0.0000 0.0000 -91.0523 -2.6548 0.0165 11.5128 -19.0700 -1.9402 -0.0000 0.0000 -11.9121 22.7165 -10.7334 -4.4582 -7.1250 0.0000 -0.0000 -3.0698 18.3771 1.9482 -0.0000 0.0000 0.0000 79.5525 -7.5306 8.8757 -20.0520 30.7049 -5.5579 0.0000 -0.0000 -14.0830 -23.7075 2.3000 -1.0096 7.1250 -0.0000 -0.0000 2.2147 -27.4661 0.9443
-0.2489 17.9526 -30.3609 -1.1432 33.4701 1.4526 0.0000 0.0000 0.0000 -13.0457 -14.6330 -7.2337 1.8109 8.4607 24.1222 0.3753 -4.2069 -10.8963 0.3647 -3.8792 -10.7371 0.0000 0.0000 0.0000 23.1941 -13.5769 -7.2082 -1.7891 -8.4123 23.9737 2.9550 -33.6220 -32.5653 -0.0416 -1.3171 3.6218 2.4127 6.5171 2.1607 2.8449 8.8178 -0.3864 1.2645 4.4012 -1.6868 11.3143 21.2461 3.7385 -10.9211 29.6572 6.1143 -3.2392 14.8264 4.5174 -0.0000 0.0000 0.0000 -91.2649 -2.7054 -0.5890 11.5545 -19.1331 -1.9538 -0.0000 0.0000 -11.8966 22.8821 -10.7943 -4.5194 -7.1250 0.0000 -0.0000 -2.9553 18.2970 1.8806 -0.0000 0.0000 0.0000 79.5118 -7.3458 8.7016 -19.4912 30.0245 -5.2744 0.0000 -0.0000 -13.8721 -23.7423 2.1895 -0.9627 7.1250 -0.0000 -0.0000 2.1889 -27.5861 0.9270
-0.2483 17.9534 -30.3635 -1.1907 33.4057 1.4705 0.0000 0.0000 0.0000 -12.9982 -14.6561 -7.2756 1.8128 8.4648 24.1351 0.3768 -4.1303 -10.9169 0.3637 -3.8740 -10.7225 0.0000 0.0000 0.0000 23.2341 -13.5673 -7.2296 -1.7813 -8.3949 23.9201 2.9298 -33.5430 -32.5459 -0.0421 -1.3247 3.6428 2.3905 6.5135 2.1444 2.8661 8.8132 -0.4030 1.2984 4.3993 -1.7016 11.0542 21.2971 3.4596 -10.7160 29.6990 6.3310 -3.1193 14.8328 4.5634 0.0000 0.0000 0.0000 -91.2870 -2.7012 -0.7657 11.5939 -19.1928 -1.9667 -0.0000 0.0000 -11.9889 23.0366 -10.7868 -4.5502 -7.1250 0.0000 -0.0000 -2.8461 18.2914 1.8113 0.0000 0.0000 0.0000 79.6332 -7.1961 8.2737 -18.8858 29.2765 -4.9749 0.0000 -0.0000 -13.6683 -23.7855 2.0672 -0.9109 7.1250 -0.0000 -0.0000 2.1567 -27.7188 0.9066
-0.2480 17.9541 -30.3664 -1.2408 33.3525 1.4832 0.0000 0.0000 0.0000 -12.9460 -14.6667 -7.3274 1.8159 8.4716 24.1561 0.3780 -4.0795 -10.9335 0.3622 -3.8662 -10.7006 0.0000 0.0000 0.0000 23.2765 -13.5686 -7.2524 -1.7740 -8.3786 23.8702 2.9000 -33.4558 -32.5389 -0.0429 -1.3370 3.6764 2.3669 6.5032 2.1288 2.8904 8.7995 -0.4159 1.3368 4.3930 -1.7134 10.9336 21.3330 3.3610 -10.6598 29.7369 6.3808 -3.0775 14.8462 4.5723 0.0000 0.0000 0.0000 -91.3084 -2.6986 -0.8534 11.6448 -19.2698 -1.9835 -0.0000 0.0000 -12.1601 23.2257 -10.6918 -4.5520 -7.1250 0.0000 -0.0000 -2.7090 18.3772 1.7187 0.0000 0.0000 0.0000 79.7620 -7.0492 7.8209 -18.2919 28.5293 -4.6878 0.0000 -0.0000 -13.4172 -23.8430 1.9626 -0.8671 7.1250 -0.0000 -0.0000 2.1134 -27.8322 0.8828
-0.2476 17.9547 -30.3695 -1.2838 33.3112 1.4942 0.0000 0.0000 0.0000 -12.9007 -14.6674 -7.3815 1.8194 8.4792 24.1794 0.3790 -4.0503 -10.9477 0.3604 -3.8564 -10.6730 0.0000 0.0000 0.0000 23.3099 -13.5837 -7.2786 -1.7679 -8.3648 23.8278 2.8685 -33.3646 -32.5346 -0.0439 -1.3530 3.7206 2.3416 6.4879 2.1165 2.9115 8.7790 -0.4236 1.3731 4.3832 -1.7213 10.8072 21.3669 3.2469 -10.5942 29.7699 6.4341 -3.0316 14.8566 4.5818 0.0000 0.0000 0.0000 -91.3256 -2.7082 -0.8926 11.6982 -19.3505 -2.0012 -0.0000 0.0000 -12.3392 23.4044 -10.5368 -4.5256 -7.1250 0.0000 -0.0000 -2.5765 18.5289 1.6258 0.0000 0.0000 0.0000 79.8996 -6.9027 7.3365 -17.7036 27.7759 -4.4102 0.0000 -0.0000 -13.0870 -23.9173 1.9179 -0.8504 7.1250 -0.0000 -0.0000 2.0564 -27.8799 0.8566
-0.2472 17.9552 -30.3728 -1.3274 33.2759 1.5007 0.0000 0.0000 0.0000 -12.8553 -14.6594 -7.4346 1.8224 8.4858 24.1997 0.3797 -4.0359 -10.9566 0.3588 -3.8480 -10.6496 0.0000 0.0000 0.0000 23.3420 -13.5987 -7.3058 -1.7630 -8.3540 23.7944 2.8359 -33.2744 -32.5410 -0.0453 -1.3732 3.7762 2.3235 6.4697 2.1065 2.9280 8.7546 -0.4277 1.4010 4.3714 -1.7251 10.6942 21.4006 3.1856 -10.5529 29.8006 6.4076 -3.0040 14.8689 4.5638 0.0000 0.0000 0.0000 -91.3289 -2.7274 -0.9317 11.7394 -19.4127 -2.0148 -0.0000 0.0000 -12.3667 23.4998 -10.3798 -4.4794 -7.1250 0.0000 -0.0000 -2.5027 18.6904 1.5702 0.0000 0.0000 0.0000 80.0406 -6.7487 6.8157 -17.1206 27.0164 -4.1419 0.0000 -0.0000 -12.6950 -23.9818 1.8820 -0.8370 7.1250 -0.0000 -0.0000 2.0069 -27.9183 0.8342
